PathFileType	4	(X/Y/Z)	54_2_rein_96_p1_0-1775_filt_butterworth.trc
DataRate	CameraRate	NumFrames	NumMarkers	Units	OrigDataRate	OrigDataStartFrame	OrigNumFrames
60.0	60.0	7	27	m	60.0	1109	1775
Frame#	Time	RHip			RKnee			RAnkle			RBigToe			RSmallToe			RHeel			LHip			LKnee			LAnkle			LBigToe			LSmallToe			LHeel			Neck			Head			Nose			RShoulder			RElbow			RWrist			RThumb			RIndex			RPinky			LShoulder			LElbow			LWrist			LThumb			LIndex			LPinky			
		X1	Y1	Z1	X2	Y2	Z2	X3	Y3	Z3	X4	Y4	Z4	X5	Y5	Z5	X6	Y6	Z6	X7	Y7	Z7	X8	Y8	Z8	X9	Y9	Z9	X10	Y10	Z10	X11	Y11	Z11	X12	Y12	Z12	X13	Y13	Z13	X14	Y14	Z14	X15	Y15	Z15	X16	Y16	Z16	X17	Y17	Z17	X18	Y18	Z18	X19	Y19	Z19	X20	Y20	Z20	X21	Y21	Z21	X22	Y22	Z22	X23	Y23	Z23	X24	Y24	Z24	X25	Y25	Z25	X26	Y26	Z26	X27	Y27	Z27	
1109	18.48333333333333	0.3042712424561208	1.0386137013968808	0.540982294950813	0.29385391905182795	0.5449249943662992	0.5800832423999367	0.27866107164944476	0.08734036693873716	0.5596593327222384	0.21102418370877238	0.08752180221911936	0.3439344583868107	0.2802714538505292	0.04832061439414185	0.3979856079819723	0.2557772569872492	-0.010779036733309029	0.657010410046128	0.09637420660989665	1.0332968677411976	0.5860476194439369	0.0883939498184794	0.5532571386182991	0.5880082731169415	0.07046583099665386	0.11610027338413652	0.5724491794670554	0.056730804898052864	0.07338143625094568	0.3808539506423806	0.009717606887991843	0.04606295104651757	0.43977892701811283	0.09121212019978658	0.057469628603226755	0.6115864961804022	0.17161060619305207	1.5943045838249932	0.6030672352724513	0.14319636899484073	1.8526750892816795	0.520956766676703	0.14060519787364464	1.7184622694856864	0.4778214235570371	0.31613856825021375	1.549744022372257	0.5290912236307189	0.315246204431373	1.3778993404491546	0.3236580006315619	0.24735333606895119	1.5769457113604615	0.2340802464334887	0.15895875034301737	1.641025420072711	0.23941284536708524	0.1346660445827192	1.6416933386285937	0.18680194195887234	0.15998077456151139	1.6132281685050391	0.12332512451998012	0.031371818353457405	1.5049944795161179	0.6583301827994242	-0.003953208165615152	1.2441570140491673	0.6898352720123127	-0.03132949308841383	1.1734542420504626	0.4524352959244544	0.0013283496488755155	1.1268899155334942	0.32250779215874276	-0.015286911119801263	1.1110198305606775	0.33513826349903253	-0.035818967360828055	1.057850790808947	0.4050884492572911	
1110	18.5	0.3043711685684591	1.0379914442043843	0.5409606717229423	0.2938418130645224	0.545015560899431	0.5799351059077831	0.27843469924091013	0.08632300108807538	0.5608473862787822	0.211061181999887	0.08826581603852258	0.3439168611727979	0.27931260044600315	0.04872060118761454	0.39768336288095213	0.25570710758956355	-0.010591566457648832	0.6567632195684397	0.09609161929318515	1.0328520510833212	0.586888740454454	0.08845286280089995	0.55330345891214	0.5881411114867259	0.07037104592418437	0.11615089010453998	0.5723817049148349	0.056713099232801385	0.07344646467215908	0.3807716491076103	0.009715605312747753	0.046059431431695025	0.43977823326959503	0.09138648314230147	0.0571493988505025	0.6118074400297538	0.17154631574371487	1.5951828276402615	0.6029551199770594	0.14307362492078965	1.8526400134481984	0.5215787993295389	0.13990703404730895	1.7183768873547611	0.48006970734072385	0.31595882617122234	1.5501360386330805	0.5290280448081848	0.31381718175754386	1.3783919880351645	0.323312795251564	0.24716278791853563	1.5795439290230429	0.2299399920145686	0.15844739404854516	1.642228857895621	0.23805458280919423	0.1351258745713662	1.6434037279624392	0.18619923770180968	0.15982021015900624	1.6156343875346697	0.12235916307423128	0.03173559341906967	1.506073590446809	0.6587824735819466	-0.001907161937285554	1.243132981006258	0.6949993300527196	-0.030543320074217006	1.1728897843850679	0.4543452600165597	0.0012383567700209185	1.12706720627436	0.32255910571401114	-0.0165556912295233	1.1111809782823057	0.3386269919862086	-0.03585145623192669	1.0590703169114408	0.4048473761163253	
1111	18.516666666666666	0.304433005732165	1.037266050544213	0.5408769787705999	0.2938486396266961	0.544994857965884	0.5798378125747198	0.2781670719026483	0.08543535190434023	0.5618208300220124	0.21125525549078816	0.08905760416425092	0.34402189258213717	0.2782302509902132	0.049202728728519995	0.39709517209907197	0.25569215539277607	-0.010537505919653781	0.6566893282844735	0.09575060432267936	1.0323731903113638	0.5873972098245901	0.08847186883806904	0.5534190993562634	0.5882848057719947	0.07027470690520701	0.11616941569709566	0.5722963462545502	0.0567155009146591	0.0735136687135475	0.3806907830509104	0.009718143828679554	0.04605852587955817	0.4397834183988736	0.09146163149396368	0.05690318087343494	0.612014443066438	0.17174767925071685	1.5958854901904567	0.6029081741337609	0.1430680481335334	1.8526302940111872	0.5216827009160903	0.1393126634990121	1.7183569312437077	0.48184977765278075	0.3160776013949779	1.550446691158522	0.5294331787141577	0.31272485065746963	1.3781457890662892	0.322990414112885	0.24691888387820876	1.5811947438219127	0.2261248127288282	0.15848412411383972	1.6434284216038755	0.2369650665187814	0.13590798721765773	1.645005942227497	0.1843456099242085	0.15954057775710728	1.6168286176839686	0.12221549978361954	0.03243260894495396	1.5069211121990111	0.659947371892319	-0.00011194808082364536	1.2425185022190746	0.6995159194616765	-0.029989792338896586	1.1726038839157513	0.45537163530080815	0.0008219423357360932	1.1269754637587042	0.323555155117464	-0.017590856498312712	1.1112185852080894	0.34158859807433767	-0.03594347493971636	1.060736274038489	0.40499305915409345	
1112	18.53333333333333	0.3044220060601182	1.0364731121008193	0.5407386260325726	0.29386579655385714	0.5448065173074199	0.5797755231790841	0.27785131305114175	0.08463655643910442	0.562626239761894	0.21150681326470103	0.08979321330051855	0.3442063180267152	0.27715196113203583	0.04969754466392973	0.39642054789120024	0.25568697041021166	-0.010550782963966627	0.6567005166814863	0.09540068261100654	1.0319256337855358	0.5874684303150632	0.08842850645479564	0.5536152316680925	0.5884232997626828	0.07021440413721437	0.11616788231743427	0.5722369878794589	0.05673456430411543	0.07358163338605268	0.3806217426927703	0.009724057411149088	0.04606265041077009	0.4397898033592003	0.09144382494591397	0.05692213460431855	0.6121977124130128	0.17234233413051878	1.5963370627134494	0.6028574719451033	0.1431541234606227	1.8526469683349245	0.5212940599480472	0.13903015699464127	1.7182585573765419	0.4824968349897179	0.31645813722070004	1.5505565089267672	0.5303757937743142	0.3121222287088057	1.3772162529460372	0.32266873141663444	0.24670931813612373	1.5814479157052086	0.22322698259149568	0.1594591466838765	1.6442765923516627	0.2361815184150776	0.1368255335684302	1.6461561060050927	0.18182161323284204	0.15929320081056336	1.6168173452854047	0.12315923699752032	0.03344686034773482	1.5074595997530427	0.6618288422143763	0.0014802295677684425	1.2422542598385886	0.7035625380779933	-0.029874183428013387	1.1723627332497295	0.45626835712635233	9.451019024147867e-05	1.126661219428242	0.3254216482486097	-0.018368889779348377	1.1111655769431867	0.3438924733741911	-0.03637622680442462	1.0625609227955053	0.405726311787148	
1113	18.55	0.3043279277198048	1.0357126802559775	0.5405719584194337	0.2938914497864731	0.5445001978236608	0.5798033155742794	0.2774889733609933	0.08389140299074258	0.563246775798775	0.21159429167185423	0.09061033037357889	0.3442567790241132	0.27624913428325054	0.050117203501945554	0.3958655884291065	0.2556731411724529	-0.010565880894782059	0.6567138371592663	0.0950839661092568	1.0315917184658878	0.5871091658105855	0.08832277672315382	0.5538569285790846	0.5885499586847999	0.0701939178110729	0.11616639791886892	0.5722173347776022	0.056763995449785	0.07364733877591832	0.38057293954195837	0.009731662295380713	0.04607490943180415	0.4397941589447965	0.0913447567623997	0.05721612992305751	0.6123132325595191	0.17333075377412768	1.596483015243751	0.6026239718424022	0.14337406922832352	1.8526932747349052	0.5203526659488162	0.13931378081417486	1.717887708464672	0.4816980278846015	0.31702397650655234	1.5502343128940514	0.5318404449013567	0.31208916763130434	1.3757502362089205	0.32231310259569695	0.24681197109869107	1.580149956122688	0.22162445414781573	0.1619225698165074	1.644675448765149	0.2349833929109417	0.1379097240951076	1.6467115467259745	0.17808811530256274	0.15911368307493112	1.6159766150233927	0.12427973136621256	0.034648729758011865	1.5075902936214909	0.664165923518185	0.0026334191836571144	1.2423031478563777	0.7065014230299016	-0.03024116296658723	1.1720360632250852	0.45753959912400105	-0.0008197045791065506	1.126136575357723	0.3278124223961165	-0.018912904282137807	1.1111382108048542	0.3455262265510638	-0.03728438420105489	1.0642129356738739	0.4070120355154238	
1114	18.566666666666663	0.30416830713845666	1.035125863876265	0.5403759473938934	0.29394021876195386	0.5441775038942225	0.5799956904907049	0.2770834233692445	0.08317502704772917	0.5636224302871623	0.21135721459849305	0.09155455587134682	0.34387962584587994	0.27576898716896353	0.050352309795265414	0.3955842949547702	0.2556501689300574	-0.010554183996244977	0.6566951420268906	0.09482215924117313	1.0314172336943266	0.5864833184518967	0.08817610101736814	0.5540685020473514	0.5886626214401309	0.07019358268817157	0.116172618790476	0.5722208540345068	0.0567964594515047	0.07370961872554257	0.3805426614687683	0.009740033444015628	0.04609612962110773	0.4397948966573392	0.09118733610571675	0.05768627976621572	0.612325126216214	0.17459547975107326	1.5962810147872972	0.6021210793282875	0.14386722063737245	1.8527794006680358	0.5186878711004093	0.14018214556152545	1.7171895707590876	0.47980415831910334	0.3177050384493648	1.5494344611363473	0.5336637914608559	0.3126682327655262	1.373852899167999	0.322068753176352	0.24759505786668928	1.5775239574794444	0.22116137662340501	0.1660675985539422	1.6447587416344784	0.23250220110103642	0.1395200686743396	1.6468584593370765	0.1720006102077473	0.15923609925947407	1.614908802462632	0.12383209582761293	0.03585681265817112	1.5072934286958037	0.6666295864798947	0.003031851434198334	1.2425742518725404	0.7074727604572216	-0.030956989801717898	1.1715559358041494	0.4594433156245931	-0.0017783441583286985	1.125452958873961	0.3303518936405622	-0.01917883698146021	1.1112440777949513	0.34637428439240076	-0.038518086955841774	1.0653962270676522	0.4087226789209032	
1115	18.58333333333333	0.30397373084886314	1.0348279303163792	0.540110058427092	0.29404343190448295	0.5439504463602506	0.5803384403987975	0.2766301068820333	0.08246469082199755	0.563717443440909	0.21082595688796096	0.0924074237859565	0.3429278844270124	0.27589984103846354	0.05032759106236725	0.39563560684381915	0.25562286497580405	-0.010518991397343368	0.6566483898860894	0.09456803439784939	1.0313738913932813	0.5858473600233522	0.08799566442620127	0.5541758429266782	0.5887457861343426	0.07019619046343044	0.11618472178522056	0.5722291690982112	0.05682387105212004	0.07376983120639102	0.38051440007343423	0.009748679668172501	0.046123283883633896	0.4397907718740153	0.09100264326947162	0.05822267831593159	0.6122445197603666	0.1760065708699181	1.5957798192614465	0.6014365683922916	0.14480939613835825	1.8529173671267296	0.5161210813413594	0.14144599219221446	1.7162977691265817	0.47749671169693153	0.31843986145300046	1.548438813734005	0.5356070997190339	0.3138523925578622	1.3715573371905967	0.32225734794202043	0.24942383019219627	1.574081039518833	0.22119654838459807	0.17172310936406038	1.6448287838814795	0.22819468648836658	0.1424792021718443	1.6471236583793238	0.16302416638182635	0.16024876518968623	1.6140877612349225	0.1204139109132833	0.03689768427144318	1.5068187085396476	0.6689440315753483	0.0026263929303373392	1.2428867489274487	0.7064296149223125	-0.03181309075354891	1.1708511217832147	0.4620372944140061	-0.0026323760988226762	1.1247219020356845	0.33262982030639354	-0.019098581331296154	1.1115106219331372	0.346293894233344	-0.039772164704918664	1.0659049581591502	0.4107293262312879	
